<svg width="176" height="33" viewBox="0 0 176 33" fill="none" xmlns="http://www.w3.org/2000/svg">
<g clip-path="url(#clip0_1_243)">
<path d="M42.4222 1.4021H46.8164V25.3701H54.0467V29.3648H42.4222V1.4021Z" fill="#726BEA"/>
<path d="M62.3494 29.7643C60.1923 29.7643 58.5412 29.1518 57.396 27.9267C56.2509 26.7017 55.6783 24.9707 55.6783 22.7336V8.0333C55.6783 5.79629 56.2509 4.06526 57.396 2.84024C58.5412 1.6152 60.1923 1.00269 62.3494 1.00269C64.5065 1.00269 66.1576 1.6152 67.3028 2.84024C68.4479 4.06526 69.0205 5.79629 69.0205 8.0333V22.7336C69.0205 24.9707 68.4479 26.7017 67.3028 27.9267C66.1576 29.1518 64.5065 29.7643 62.3494 29.7643ZM62.3494 25.7696C63.8674 25.7696 64.6264 24.8508 64.6264 23.0132V7.75367C64.6264 5.91612 63.8674 4.99735 62.3494 4.99735C60.8314 4.99735 60.0724 5.91612 60.0724 7.75367V23.0132C60.0724 24.8508 60.8314 25.7696 62.3494 25.7696Z" fill="#726BEA"/>
<path d="M78.2236 29.7643C76.0932 29.7643 74.4687 29.1651 73.3501 27.9667C72.2316 26.7417 71.6724 24.9973 71.6724 22.7336V8.0333C71.6724 5.76966 72.2316 4.03863 73.3501 2.84024C74.4687 1.6152 76.0932 1.00269 78.2236 1.00269C80.3541 1.00269 81.9786 1.6152 83.0971 2.84024C84.2157 4.03863 84.7749 5.76966 84.7749 8.0333V10.4301H80.6204V7.75367C80.6204 5.91612 79.8614 4.99735 78.3434 4.99735C76.8255 4.99735 76.0665 5.91612 76.0665 7.75367V23.0533C76.0665 24.8642 76.8255 25.7696 78.3434 25.7696C79.8614 25.7696 80.6204 24.8642 80.6204 23.0533V17.5806H78.4234V13.5859H84.7749V22.7336C84.7749 24.9973 84.2157 26.7417 83.0971 27.9667C81.9786 29.1651 80.3541 29.7643 78.2236 29.7643Z" fill="#726BEA"/>
<path d="M93.9475 29.7643C91.7904 29.7643 90.1393 29.1518 88.9942 27.9267C87.849 26.7017 87.2765 24.9707 87.2765 22.7336V8.0333C87.2765 5.79629 87.849 4.06526 88.9942 2.84024C90.1393 1.6152 91.7904 1.00269 93.9475 1.00269C96.1048 1.00269 97.7559 1.6152 98.901 2.84024C100.046 4.06526 100.619 5.79629 100.619 8.0333V22.7336C100.619 24.9707 100.046 26.7017 98.901 27.9267C97.7559 29.1518 96.1048 29.7643 93.9475 29.7643ZM93.9475 25.7696C95.4655 25.7696 96.2245 24.8508 96.2245 23.0132V7.75367C96.2245 5.91612 95.4655 4.99735 93.9475 4.99735C92.4297 4.99735 91.6707 5.91612 91.6707 7.75367V23.0132C91.6707 24.8508 92.4297 25.7696 93.9475 25.7696Z" fill="#726BEA"/>
<path d="M103.599 1.4021H107.993V29.3648H103.599V1.4021Z" fill="#4F46E5"/>
<path d="M111.284 1.4021H117.755C119.938 1.4021 121.576 1.98798 122.669 3.15976C123.761 4.33152 124.307 6.04923 124.307 8.31287V11.0692C124.307 13.3329 123.761 15.0505 122.669 16.2223C121.576 17.3941 119.938 17.9799 117.755 17.9799H115.678V29.3648H111.284V1.4021ZM117.755 13.9853C118.474 13.9853 119.007 13.7855 119.353 13.3861C119.726 12.9866 119.912 12.3076 119.912 11.3488V8.03325C119.912 7.07452 119.726 6.39543 119.353 5.99596C119.007 5.5965 118.474 5.39677 117.755 5.39677H115.678V13.9853H117.755Z" fill="#4F46E5"/>
<path d="M132.561 29.7643C130.431 29.7643 128.82 29.1651 127.727 27.9667C126.636 26.7417 126.09 24.9973 126.09 22.7336V21.1358H130.244V23.0533C130.244 24.8642 131.003 25.7696 132.521 25.7696C133.267 25.7696 133.826 25.5566 134.199 25.1305C134.598 24.6778 134.798 23.9587 134.798 22.9733C134.798 21.8016 134.532 20.7763 134 19.8975C133.467 18.992 132.482 17.9134 131.043 16.6617C129.232 15.0639 127.967 13.6258 127.248 12.3475C126.53 11.0426 126.17 9.5779 126.17 7.95341C126.17 5.74303 126.729 4.03863 127.847 2.84024C128.966 1.6152 130.591 1.00269 132.721 1.00269C134.825 1.00269 136.41 1.6152 137.475 2.84024C138.567 4.03863 139.113 5.76966 139.113 8.0333V9.19176H134.958V7.75367C134.958 6.79496 134.772 6.10254 134.399 5.67644C134.026 5.22372 133.481 4.99735 132.761 4.99735C131.296 4.99735 130.564 5.88949 130.564 7.67378C130.564 8.68576 130.831 9.63116 131.363 10.51C131.922 11.3888 132.921 12.454 134.359 13.7057C136.196 15.3036 137.461 16.755 138.154 18.0599C138.846 19.3649 139.193 20.8961 139.193 22.6538C139.193 24.9441 138.62 26.7017 137.475 27.9267C136.356 29.1518 134.718 29.7643 132.561 29.7643Z" fill="#4F46E5"/>
<path d="M148.104 29.7642C145.973 29.7642 144.349 29.1651 143.23 27.9666C142.111 26.7416 141.552 24.9973 141.552 22.7336V1.4021H145.947V23.0532C145.947 24.0119 146.133 24.7043 146.506 25.1305C146.905 25.5565 147.465 25.7696 148.183 25.7696C148.903 25.7696 149.448 25.5565 149.821 25.1305C150.22 24.7043 150.421 24.0119 150.421 23.0532V1.4021H154.655V22.7336C154.655 24.9973 154.096 26.7416 152.977 27.9666C151.858 29.1651 150.234 29.7642 148.104 29.7642Z" fill="#4F46E5"/>
<path d="M157.784 1.4021H164.056L166.852 21.4153H166.932L169.729 1.4021H176V29.3648H171.845V8.19304H171.766L168.569 29.3648H164.894L161.699 8.19304H161.62V29.3648H157.784V1.4021Z" fill="#4F46E5"/>
<path d="M0 29.3649C5.40593 29.3649 9.78825 24.9825 9.78825 19.5766C9.78825 14.1707 5.40593 9.78833 0 9.78833V16.6401C1.62176 16.6401 2.93646 17.9548 2.93646 19.5766C2.93646 21.1984 1.62176 22.5131 0 22.5131V29.3649Z" fill="#726BEA"/>
<path d="M32.6275 13.0511C30.9549 12.5212 29.1736 12.2354 27.3255 12.2354C17.6399 12.2354 9.78827 20.0872 9.78827 29.7727C9.78827 30.7448 9.86738 31.6985 10.0195 32.6276H20.9159C20.527 31.7555 20.3107 30.7894 20.3107 29.7727C20.3107 25.8985 23.4513 22.7577 27.3255 22.7577C29.443 22.7577 31.3413 23.6959 32.6275 25.1793V13.0511Z" fill="#A5B4FC"/>
<path d="M1.72089 0C2.5324 7.34111 8.75626 13.0511 16.3137 13.0511C23.871 13.0511 30.0949 7.34111 30.9064 0H20.4064C19.7581 1.62503 18.1699 2.77333 16.3137 2.77333C14.4573 2.77333 12.8693 1.62503 12.2209 0H1.72089Z" fill="#4F46E5"/>
</g>
<defs>
<clipPath id="clip0_1_243">
<rect width="176" height="33" fill="white"/>
</clipPath>
</defs>
</svg>
