<svg width="176" height="34" viewBox="0 0 176 34" fill="none" xmlns="http://www.w3.org/2000/svg">
<g clip-path="url(#clip0_1_414)">
<path d="M42.4222 1.60449H46.8164V25.5724H54.0467V29.5672H42.4222V1.60449Z" fill="white"/>
<path d="M62.3494 29.9667C60.1923 29.9667 58.5412 29.3542 57.396 28.1291C56.2509 26.904 55.6783 25.1731 55.6783 22.936V8.2357C55.6783 5.99868 56.2509 4.26766 57.396 3.04263C58.5412 1.81759 60.1923 1.20508 62.3494 1.20508C64.5065 1.20508 66.1576 1.81759 67.3028 3.04263C68.4479 4.26766 69.0205 5.99868 69.0205 8.2357V22.936C69.0205 25.1731 68.4479 26.904 67.3028 28.1291C66.1576 29.3542 64.5065 29.9667 62.3494 29.9667ZM62.3494 25.972C63.8674 25.972 64.6264 25.0532 64.6264 23.2156V7.95607C64.6264 6.11852 63.8674 5.19974 62.3494 5.19974C60.8314 5.19974 60.0724 6.11852 60.0724 7.95607V23.2156C60.0724 25.0532 60.8314 25.972 62.3494 25.972Z" fill="white"/>
<path d="M78.2236 29.9667C76.0932 29.9667 74.4687 29.3675 73.3501 28.1691C72.2316 26.9441 71.6724 25.1997 71.6724 22.936V8.2357C71.6724 5.97205 72.2316 4.24102 73.3501 3.04263C74.4687 1.81759 76.0932 1.20508 78.2236 1.20508C80.3541 1.20508 81.9786 1.81759 83.0971 3.04263C84.2157 4.24102 84.7749 5.97205 84.7749 8.2357V10.6325H80.6204V7.95607C80.6204 6.11852 79.8614 5.19974 78.3434 5.19974C76.8255 5.19974 76.0665 6.11852 76.0665 7.95607V23.2557C76.0665 25.0666 76.8255 25.972 78.3434 25.972C79.8614 25.972 80.6204 25.0666 80.6204 23.2557V17.783H78.4234V13.7883H84.7749V22.936C84.7749 25.1997 84.2157 26.9441 83.0971 28.1691C81.9786 29.3675 80.3541 29.9667 78.2236 29.9667Z" fill="white"/>
<path d="M93.9475 29.9667C91.7904 29.9667 90.1393 29.3542 88.9942 28.1291C87.849 26.904 87.2765 25.1731 87.2765 22.936V8.2357C87.2765 5.99868 87.849 4.26766 88.9942 3.04263C90.1393 1.81759 91.7904 1.20508 93.9475 1.20508C96.1048 1.20508 97.7559 1.81759 98.901 3.04263C100.046 4.26766 100.619 5.99868 100.619 8.2357V22.936C100.619 25.1731 100.046 26.904 98.901 28.1291C97.7559 29.3542 96.1048 29.9667 93.9475 29.9667ZM93.9475 25.972C95.4655 25.972 96.2245 25.0532 96.2245 23.2156V7.95607C96.2245 6.11852 95.4655 5.19974 93.9475 5.19974C92.4297 5.19974 91.6707 6.11852 91.6707 7.95607V23.2156C91.6707 25.0532 92.4297 25.972 93.9475 25.972Z" fill="white"/>
<path d="M103.599 1.60449H107.993V29.5672H103.599V1.60449Z" fill="white"/>
<path d="M111.284 1.60449H117.755C119.938 1.60449 121.576 2.19037 122.669 3.36215C123.761 4.53391 124.307 6.25162 124.307 8.51526V11.2716C124.307 13.5353 123.761 15.2529 122.669 16.4247C121.576 17.5965 119.938 18.1823 117.755 18.1823H115.678V29.5672H111.284V1.60449ZM117.755 14.1877C118.474 14.1877 119.007 13.9879 119.353 13.5885C119.726 13.189 119.912 12.5099 119.912 11.5512V8.23564C119.912 7.27692 119.726 6.59782 119.353 6.19836C119.007 5.79889 118.474 5.59916 117.755 5.59916H115.678V14.1877H117.755Z" fill="white"/>
<path d="M132.561 29.9667C130.431 29.9667 128.82 29.3675 127.727 28.1691C126.636 26.9441 126.09 25.1997 126.09 22.936V21.3382H130.244V23.2557C130.244 25.0666 131.003 25.972 132.521 25.972C133.267 25.972 133.826 25.7589 134.199 25.3329C134.598 24.8802 134.798 24.1611 134.798 23.1757C134.798 22.004 134.532 20.9787 134 20.0999C133.467 19.1944 132.482 18.1158 131.043 16.8641C129.232 15.2663 127.967 13.8282 127.248 12.5499C126.53 11.245 126.17 9.78029 126.17 8.1558C126.17 5.94542 126.729 4.24102 127.847 3.04263C128.966 1.81759 130.591 1.20508 132.721 1.20508C134.825 1.20508 136.41 1.81759 137.475 3.04263C138.567 4.24102 139.113 5.97205 139.113 8.2357V9.39415H134.958V7.95607C134.958 6.99735 134.772 6.30493 134.399 5.87884C134.026 5.42611 133.481 5.19974 132.761 5.19974C131.296 5.19974 130.564 6.09188 130.564 7.87617C130.564 8.88815 130.831 9.83356 131.363 10.7124C131.922 11.5912 132.921 12.6564 134.359 13.9081C136.196 15.506 137.461 16.9574 138.154 18.2623C138.846 19.5673 139.193 21.0985 139.193 22.8562C139.193 25.1465 138.62 26.904 137.475 28.1291C136.356 29.3542 134.718 29.9667 132.561 29.9667Z" fill="white"/>
<path d="M148.104 29.9666C145.973 29.9666 144.349 29.3674 143.23 28.169C142.111 26.944 141.552 25.1997 141.552 22.936V1.60449H145.947V23.2556C145.947 24.2143 146.133 24.9067 146.506 25.3329C146.905 25.7589 147.465 25.972 148.183 25.972C148.903 25.972 149.448 25.7589 149.821 25.3329C150.22 24.9067 150.421 24.2143 150.421 23.2556V1.60449H154.655V22.936C154.655 25.1997 154.096 26.944 152.977 28.169C151.858 29.3674 150.234 29.9666 148.104 29.9666Z" fill="white"/>
<path d="M157.784 1.60449H164.056L166.852 21.6177H166.932L169.729 1.60449H176V29.5672H171.845V8.39543H171.766L168.569 29.5672H164.894L161.699 8.39543H161.62V29.5672H157.784V1.60449Z" fill="white"/>
<path d="M0 29.5673C5.40593 29.5673 9.78825 25.1849 9.78825 19.779C9.78825 14.3731 5.40593 9.99072 0 9.99072V16.8425C1.62176 16.8425 2.93646 18.1572 2.93646 19.779C2.93646 21.4008 1.62176 22.7155 0 22.7155V29.5673Z" fill="white"/>
<path d="M32.6275 13.2535C30.9549 12.7236 29.1736 12.4377 27.3255 12.4377C17.6399 12.4377 9.78827 20.2895 9.78827 29.975C9.78827 30.9472 9.86738 31.9009 10.0195 32.83H20.9159C20.527 31.9579 20.3107 30.9918 20.3107 29.975C20.3107 26.1008 23.4513 22.9601 27.3255 22.9601C29.443 22.9601 31.3413 23.8983 32.6275 25.3817V13.2535Z" fill="white"/>
<path d="M1.72089 0.202393C2.5324 7.54351 8.75626 13.2535 16.3137 13.2535C23.871 13.2535 30.0949 7.54351 30.9064 0.202393H20.4064C19.7581 1.82742 18.1699 2.97572 16.3137 2.97572C14.4573 2.97572 12.8693 1.82742 12.2209 0.202393H1.72089Z" fill="white"/>
</g>
<defs>
<clipPath id="clip0_1_414">
<rect width="176" height="33" fill="white" transform="translate(0 0.202393)"/>
</clipPath>
</defs>
</svg>
